<svg width="173" height="162" viewBox="0 0 173 162" fill="none" xmlns="http://www.w3.org/2000/svg">
<path d="M52.8051 71C52.8051 80.9411 60.8639 89 70.8051 89L97.8051 89C100.566 89 102.805 86.7614 102.805 84L102.805 50C102.805 44.4772 98.3279 40 92.8051 40L57.8051 40C55.0436 40 52.8051 42.2386 52.8051 45L52.8051 71Z" fill="#FFF1DA"/>
<path d="M101.389 94.9414C100.031 95.2456 98.7076 95.8091 97.5021 96.5966C94.3613 98.5979 92.534 101.455 93.4209 102.977C94.3079 104.499 97.5729 104.11 100.714 102.108C101.935 101.349 103.021 100.378 103.903 99.2559C104.312 98.7138 104.386 98.0384 104.091 97.5335L102.938 95.5561C102.645 95.0495 102.037 94.8087 101.389 94.9414Z" fill="#D5D6DB"/>
<path d="M93.5019 67.9483C92.517 68.169 91.5576 68.5778 90.6833 69.1489C88.4065 70.5997 87.0807 72.6711 87.7233 73.7739C88.3659 74.8766 90.7344 74.5941 93.011 73.1435C93.8969 72.5924 94.6838 71.8881 95.3236 71.0745C95.6201 70.6816 95.6732 70.1922 95.4592 69.8261L94.6249 68.3944C94.4127 68.0272 93.972 67.8521 93.5019 67.9483Z" fill="#D5D6DB"/>
<path d="M80.6879 69.0787C80.4686 69.0542 80.2348 69.1127 80.032 69.2422L74.6839 72.6504C74.2365 72.9346 74.0575 73.4819 74.2844 73.8731C74.3363 73.9628 74.4073 74.0393 74.4936 74.0983L87.6752 83.1832L105.509 71.8186L80.6879 69.0787Z" fill="#029BC5"/>
<path d="M137.065 67.7941L88.5327 98.3462L59.82 109.772L45.1769 112.682L43.5659 109.945L124.461 59.9985C126.872 58.5036 129.557 57.5861 132.246 57.339C133.424 57.2371 134.587 57.2763 135.708 57.4551C136.702 57.6058 137.645 57.8965 138.508 58.3186C139.472 58.7968 141.307 58.852 141.901 59.8048C141.903 59.8032 143.305 64.1777 137.065 67.7941Z" fill="#E1E6E9"/>
<path d="M89.1761 94.3036L68.1808 127.774C67.9186 128.244 68.0743 128.77 68.5281 128.949C68.8067 129.06 69.1476 129.016 69.434 128.834L74.778 125.444C75.8059 124.792 76.716 123.963 77.4521 123.009L118.169 75.1404L89.1761 94.3036Z" fill="#029BC5"/>
<path d="M36.1965 93.1862C35.8463 93.0664 35.4295 93.1285 35.0777 93.3526L30.6602 96.166C30.0583 96.5491 29.8184 97.2855 30.1243 97.8112C30.1825 97.9111 30.2582 97.999 30.349 98.0715L42.7257 107.984L55.7387 99.8557L36.1965 93.1862Z" fill="#029BC5"/>
<path d="M46.8742 109.771L40.2127 119.1C40.115 119.234 40.138 119.403 40.264 119.476C40.3548 119.529 40.4788 119.519 40.5796 119.452L44.7078 116.836C44.7399 116.815 44.7689 116.79 44.7929 116.761L54.5265 104.926L46.8742 109.771Z" fill="#029BC5"/>
<path d="M134.911 57.8573C133.757 57.6719 132.559 57.6323 131.346 57.7389C130.165 59.3899 129.411 61.2447 129.157 63.1181C129.139 63.4944 129.442 63.7653 129.835 63.7231C129.957 63.7098 130.079 63.6669 130.188 63.5982L137.796 58.7539C136.906 58.3153 135.935 58.0134 134.911 57.8573Z" fill="#029BC5"/>
<path d="M118.332 66.7654L123.299 63.6284L127.926 71.4974L122.959 74.6344L118.332 66.7654Z" fill="#D5D6DB"/>
<path d="M115.207 69.8776C114.608 70.2567 114.369 70.9855 114.673 71.5053L115.165 72.3472C115.489 72.8537 116.228 72.9428 116.816 72.5461C117.376 72.1683 117.602 71.4816 117.332 70.9746L116.839 70.1326C116.536 69.6133 115.805 69.499 115.207 69.8776Z" fill="#3A556A"/>
<path d="M110.742 72.6501C110.144 73.0292 109.904 73.758 110.208 74.2777L110.701 75.1197C111.024 75.6262 111.764 75.7152 112.352 75.3185C112.912 74.9407 113.137 74.2541 112.867 73.747L112.375 72.905C112.071 72.3859 111.34 72.2717 110.742 72.6501Z" fill="#3A556A"/>
<path d="M106.276 75.4234C105.678 75.803 105.44 76.531 105.744 77.0502L106.236 77.8922C106.56 78.3986 107.299 78.4877 107.887 78.091C108.447 77.7132 108.673 77.0265 108.403 76.5195L107.911 75.6776C107.607 75.1579 106.875 75.0441 106.276 75.4234Z" fill="#3A556A"/>
<path d="M101.812 78.1958C101.214 78.5754 100.976 79.3034 101.279 79.8226L101.772 80.6646C102.095 81.1711 102.835 81.2601 103.423 80.8634C103.983 80.4856 104.208 79.799 103.938 79.2919L103.446 78.45C103.142 77.9304 102.41 77.8166 101.812 78.1958Z" fill="#3A556A"/>
<path d="M97.348 80.9684C96.7497 81.3483 96.5112 82.0765 96.815 82.596L97.3076 83.4383C97.6113 83.9576 98.3425 84.0713 98.9409 83.6923C99.5393 83.3133 99.7782 82.5851 99.4745 82.0659L98.9819 81.2235C98.679 80.7038 97.948 80.5893 97.3492 80.9676C97.3487 80.968 97.3485 80.9681 97.348 80.9684Z" fill="#3A556A"/>
<path d="M92.8836 83.7409C92.2854 84.1207 92.0469 84.8489 92.3507 85.3684L92.8433 86.2108C93.1469 86.73 93.8782 86.8438 94.4765 86.4648C95.0749 86.0858 95.3138 85.3576 95.0102 84.8383L94.5176 83.996C94.2146 83.4762 93.4836 83.3618 92.8849 83.7401L92.8836 83.7409Z" fill="#3A556A"/>
<path d="M88.419 86.5134C87.8208 86.8932 87.5823 87.6215 87.886 88.1409L88.3786 88.9832C88.6831 89.502 89.4147 89.6146 90.0124 89.2351C90.6091 88.8563 90.8475 88.1296 90.5452 87.611L90.0526 86.7687C89.7491 86.2491 89.0179 86.1347 88.419 86.5134Z" fill="#3A556A"/>
<path d="M83.9544 89.2859C83.3562 89.6658 83.1177 90.394 83.4214 90.9135L83.914 91.7558C84.2185 92.2746 84.9501 92.3872 85.5478 92.0077C86.1445 91.6289 86.3829 90.9022 86.0806 90.3835L85.588 89.5412C85.2845 89.0215 84.5533 88.9072 83.9544 89.2859Z" fill="#3A556A"/>
<path d="M79.4902 92.0584C78.8919 92.4382 78.6534 93.1664 78.9572 93.6859L79.4498 94.5282C79.7542 95.0469 80.4858 95.1595 81.0836 94.78C81.6803 94.4012 81.9187 93.6746 81.6164 93.1559L81.1238 92.3136C80.82 91.7941 80.0888 91.6798 79.4902 92.0584Z" fill="#3A556A"/>
<path d="M75.0243 94.8316C74.426 95.2106 74.1871 95.9388 74.4908 96.458L74.4914 96.4591L74.984 97.3015C75.2884 97.8203 76.02 97.9328 76.6177 97.5534C77.2144 97.1745 77.4528 96.4478 77.1506 95.9292L76.658 95.0869C76.3545 94.5672 75.6232 94.4529 75.0243 94.8316Z" fill="#3A556A"/>
<path d="M70.5611 97.6033C69.9627 97.9823 69.7238 98.7104 70.0275 99.2297L70.0281 99.2308L70.5207 100.073C70.8252 100.592 71.5568 100.704 72.1545 100.325C72.7512 99.9461 72.9896 99.2195 72.6874 98.7008L72.1948 97.8585C71.891 97.3391 71.1597 97.2247 70.5611 97.6033Z" fill="#3A556A"/>
</svg>
